<?xml version="1.0" encoding="utf-8"?>
<!-- Generator: Adobe Illustrator 19.2.1, SVG Export Plug-In . SVG Version: 6.00 Build 0)  -->
<svg version="1.1" id="Layer_1" xmlns="http://www.w3.org/2000/svg" xmlns:xlink="http://www.w3.org/1999/xlink" x="0px" y="0px"
	 viewBox="0 0 56.8739014 21.26828" enable-background="new 0 0 56.8739014 21.26828" xml:space="preserve">
<g>
	<defs>
		<rect id="SVGID_1_" x="0.0008545" y="0.0004578" width="56.8730469" height="21.2510071"/>
	</defs>
	<clipPath id="SVGID_2_">
		<use xlink:href="#SVGID_1_"  overflow="visible"/>
	</clipPath>
	<path clip-path="url(#SVGID_2_)" fill="#2A2321" d="M15.8344727,2.914978l0.092041-0.0029907
		c0.0849609-0.0079956,0.1999512-0.0190125,0.3189697-0.0509949L16.3125,2.8389893
		c0.0909424-0.0320129,0.1809082-0.0809937,0.2490234-0.1480103c0.0549316-0.0539856,0.0878906-0.1149902,0.112915-0.1699829
		c0.0290527-0.0720215,0.0380859-0.1390076,0.0419922-0.1860046c0.0059814-0.0450134,0.0050049-0.0710144,0.0050049-0.0710144
		l-0.0019531-0.0509949c-0.0030518-0.0559998-0.0119629-0.1419983-0.0560303-0.2279968
		c-0.019043-0.0390015-0.0469971-0.0780029-0.0880127-0.1180115c-0.0439453-0.0429993-0.0999756-0.0789795-0.1599121-0.1069946
		c-0.1160889-0.0489807-0.2480469-0.0699768-0.3601074-0.0789795c-0.0479736-0.0030212-0.0909424-0.0030212-0.1289063-0.0030212
		h-0.56604v1.2380066h0.4089355C15.7694092,2.9159851,15.7984619,2.9159851,15.8344727,2.914978 M16.701416,4.8969727
		c0.1070557-0.0359802,0.2091064-0.0909729,0.2880859-0.1689758l0.0770264-0.0960083
		c0.0668945-0.105011,0.0819092-0.2109985,0.0869141-0.2709961V4.3199768V4.2869873c0-0.0239868-0.0019531-0.071991-0.0159912-0.125
		c-0.0159912-0.0629883-0.0450439-0.1340027-0.098999-0.1990051l-0.0319824-0.0390015l-0.0760498-0.0650024
		c-0.0458984-0.0329895-0.098999-0.0650024-0.1569824-0.0899963c-0.0780029-0.0319824-0.1629639-0.0539856-0.2559814-0.072998
		c-0.0479736-0.0109863-0.098999-0.0169983-0.1490479-0.0220032c-0.032959-0.0029907-0.065918-0.0059814-0.1009521-0.0079956
		l-0.0889893-0.0039978h-0.8179932v1.3089905h0.8480225L16.253418,4.96698c0.0280762,0,0.0670166-0.0019836,0.1170654-0.0050049
		C16.463501,4.9530029,16.5834961,4.9359741,16.701416,4.8969727 M12.6505127,6.6429749h7.0620117V0h-7.0620117V6.6429749z
		 M14.503418,0.9319763h1.5531006c0.8349609,0,1.2059326,0.4370117,1.2059326,0.4370117s0.3370361,0.2909851,0.3370361,0.7980042
		c0,0.5059814-0.2290039,0.7139893-0.2929688,0.7789917c-0.1390381,0.1360168-0.3179932,0.2229919-0.3179932,0.2229919
		s0.3959961,0.0830078,0.7099609,0.3940125c0.3640137,0.3649902,0.3349609,0.8389893,0.3349609,0.8389893
		S18.0625,4.8609924,17.668457,5.2549744C17.1834717,5.7399902,16.3054199,5.71698,16.3054199,5.71698h-1.802002V0.9319763z
		 M20.7855225,6.6429749h7.0599365V0h-7.0599365V6.6429749z M26.444458,5.34198l-0.0469971,0.0230103
		c-0.0350342,0.0180054-0.0720215,0.0360107-0.1069336,0.052002c-0.0380859,0.0159912-0.0760498,0.0319824-0.1101074,0.0499878
		c-0.0599365,0.0230103-0.1099854,0.0420227-0.1519775,0.0599976c-0.0339355,0.0120239-0.0610352,0.0220032-0.0820313,0.0299988
		l-0.0379639,0.0120239c-0.0419922,0.0149841-0.0859375,0.0299988-0.1300049,0.0449829
		c-0.0419922,0.0100098-0.0789795,0.0230103-0.1190186,0.0329895c-0.0539551,0.0140076-0.112915,0.0310059-0.1719971,0.0400085
		c-0.0419922,0.0090027-0.0809326,0.0190125-0.1219482,0.0249939c-0.0679932,0.0120239-0.1359863,0.0240173-0.2099609,0.0340271
		c-0.0460205,0.0019836-0.0950928,0.0089722-0.1459961,0.0119934l-0.0230713,0.0029907
		c-0.1290283,0.0100098-0.2679443,0.0180054-0.4160156,0.0180054l-0.05896-0.0029907c-0.0390625,0-0.0789795,0-0.1199951-0.0030212
		c-0.0830078-0.0050049-0.1629639-0.0119934-0.2390137-0.019989C24.0744629,5.7460022,23.9974365,5.7309875,23.925415,5.71698
		c-0.0878906-0.0169983-0.1759033-0.0379944-0.2559814-0.0610046c-0.0489502-0.0149841-0.0939941-0.0279846-0.1379395-0.0449829
		c-0.0450439-0.0150146-0.0880127-0.0289917-0.1309814-0.04599c-0.1140137-0.0460205-0.2180176-0.0970154-0.3100586-0.1480103
		c-0.0469971-0.0270081-0.092041-0.052002-0.1340332-0.0800171c-0.0389404-0.0279846-0.0780029-0.052002-0.1119385-0.0789795
		l-0.0849609-0.0639954l-0.0830078-0.0680237c-0.0380859-0.0329895-0.0690918-0.0619812-0.1010742-0.09198l-0.0200195-0.0209961
		c-0.0379639-0.0370178-0.072998-0.0750122-0.1109619-0.1180115c-0.0300293-0.0339966-0.0610352-0.071991-0.092041-0.1090088
		c-0.0279541-0.0379944-0.0559082-0.0749817-0.0839844-0.1159973c-0.0209961-0.0310059-0.039917-0.0599976-0.0620117-0.0950012
		c-0.0249023-0.0369873-0.0479736-0.0799866-0.0718994-0.1229858c-0.0390625-0.0740051-0.0780029-0.1540222-0.111084-0.2350159
		c-0.0219727-0.0499878-0.039917-0.1029968-0.05896-0.1549988c-0.0150146-0.04599-0.0269775-0.0910034-0.0419922-0.1369934
		c-0.0090332-0.0339966-0.0169678-0.0690002-0.0250244-0.1059875l-0.0109863-0.0500183
		c-0.0090332-0.04599-0.0140381-0.0899963-0.0200195-0.1340027l-0.0040283-0.026001
		c-0.0039063-0.0379944-0.006958-0.0780029-0.0089111-0.1149902c-0.0030518-0.0360107-0.0030518-0.0750122-0.0030518-0.1119995
		c0-0.0499878,0.0030518-0.1000061,0.0050049-0.1480103c0.0030518-0.0650024,0.0109863-0.1289978,0.019043-0.1889954
		c0.026001-0.197998,0.072998-0.3819885,0.1400146-0.553009c0.0509033-0.1369934,0.1179199-0.2659912,0.1899414-0.3869934
		L22.2454834,2.04599l0.0579834-0.0889893c0.0279541-0.0380249,0.0550537-0.0760193,0.0860596-0.1100159
		C22.4155273,1.8139954,22.444458,1.7809753,22.4714355,1.75l0.0870361-0.0910034
		c0.0350342-0.0350037,0.0720215-0.0700073,0.1090088-0.1020203c0.0410156-0.0359802,0.0839844-0.0709839,0.1279297-0.1049805
		l0.06604-0.0490112l0.0780029-0.0539856c0.0450439-0.0310059,0.0960693-0.0599976,0.144043-0.0890198
		c0.0529785-0.0299988,0.1069336-0.0610046,0.1639404-0.0859985c0.0650635-0.0329895,0.137085-0.0650024,0.2120361-0.0929871
		c0.1409912-0.0549927,0.2969971-0.1040039,0.4659424-0.1390076l0.0800781-0.0169983l0.0620117-0.0100098l0.0469971-0.0059814
		l0.0389404-0.007019l0.0319824-0.0019836c0.0419922-0.007019,0.0820313-0.0119934,0.1260986-0.0169983l0.0869141-0.0050049
		C24.4484863,0.875,24.4995117,0.8729858,24.5524902,0.8710022l0.0759277-0.0010071
		c0.0631104,0,0.1280518,0.0029907,0.1950684,0.0069885c0.0360107,0.0010071,0.0759277,0.0029907,0.1140137,0.006012
		c0.0529785,0.0069885,0.1099854,0.0139771,0.1619873,0.0189819l0.0379639,0.007019
		c0.0340576,0.0050049,0.0670166,0.0109863,0.0949707,0.0139771c0.0390625,0.0090027,0.0770264,0.0150146,0.1149902,0.0220032
		c0.0350342,0.0100098,0.0690918,0.0180054,0.1051025,0.0230103l0.0629883,0.0140076
		c0.032959,0.0099792,0.065918,0.0169983,0.098999,0.0270081l0.0819092,0.0229797l0.0220947,0.0079956l0.0819092,0.0209961
		c0.0350342,0.0120239,0.0720215,0.026001,0.1051025,0.0350037L25.9914551,1.125
		c0.0369873,0.0139771,0.0689697,0.0249939,0.1020508,0.0349731c0.0559082,0.0200195,0.1049805,0.0390015,0.1479492,0.0559998
		c0.0960693,0.0370178,0.1529541,0.0600281,0.1529541,0.0600281v0.8899841l-0.0928955-0.053009
		c-0.0350342-0.0179749-0.0770264-0.0409851-0.1260986-0.0650024l-0.0909424-0.0469971
		c-0.0390625-0.019989-0.0820313-0.0409851-0.125-0.0589905c-0.0539551-0.0239868-0.1080322-0.0490112-0.1660156-0.071991
		c-0.0419922-0.0180054-0.0849609-0.0350037-0.1309814-0.0509949c0,0-0.0269775-0.0100098-0.0770264-0.026001
		c-0.0279541-0.0120239-0.0670166-0.0230103-0.1109619-0.0350037c-0.0290527-0.0110168-0.05896-0.0209961-0.0970459-0.0299988
		c-0.052002-0.0130005-0.1119385-0.0280151-0.1749268-0.0400085c-0.0419922-0.0079956-0.0889893-0.0169983-0.1359863-0.0239868
		c-0.0510254-0.0080261-0.1070557-0.0150146-0.1630859-0.0200195l-0.0899658-0.0059814
		c-0.0469971-0.0030212-0.0939941-0.0050049-0.1400146-0.007019h-0.0610352c-0.0629883,0-0.1309814,0.0039978-0.1959229,0.0090027
		C24.3814697,1.6429749,24.3485107,1.6469727,24.3125,1.6519775c-0.0340576,0.0020142-0.0700684,0.0079956-0.1040039,0.0160217
		l-0.0970459,0.019989l-0.0939941,0.0230103c-0.032959,0.0079956-0.0689697,0.0189819-0.0999756,0.0329895l-0.0939941,0.0339966
		l-0.0910645,0.0360107C23.5405273,1.9019775,23.352417,2.026001,23.1875,2.190979l-0.0319824,0.0350037l-0.0620117,0.0710144
		l-0.0440674,0.0549927c-0.0379639,0.0490112-0.0720215,0.098999-0.1019287,0.1520081l-0.0380859,0.0709839L22.864502,2.6669922
		l-0.0269775,0.0679932l-0.0321045,0.0960083c-0.0119629,0.0379944-0.0219727,0.071991-0.0299072,0.1049805
		c-0.0130615,0.0510254-0.0209961,0.1000061-0.026001,0.1440125c-0.0140381,0.0769958-0.0170898,0.1419983-0.019043,0.1940002
		v0.0580139c0,0.0219727,0,0.0549927,0.0019531,0.0939941l0.0050049,0.0749817
		c0.0070801,0.0750122,0.0170898,0.1610107,0.0419922,0.2580261c0.0080566,0.0299988,0.019043,0.065979,0.0300293,0.0999756
		c0.0130615,0.0420227,0.0280762,0.0890198,0.0500488,0.132019l0.0349121,0.0820007l0.0510254,0.0959778l0.0410156,0.0650024
		l0.0469971,0.0660095l0.052002,0.0690002c0.0350342,0.0409851,0.072998,0.0830078,0.1149902,0.1239929l0.0109863,0.0090027
		l0.0070801,0.0090027l0.0169678,0.0150146l0.0290527,0.0249939l0.0699463,0.0589905l0.0780029,0.0559998l0.0649414,0.0440063
		l0.0631104,0.0369873c0.0419922,0.0240173,0.0889893,0.0480042,0.1309814,0.0690002l0.0639648,0.0280151l0.0369873,0.0140076
		l0.0579834,0.0229797c0.1270752,0.0450134,0.2600098,0.0809937,0.3909912,0.1010132
		c0.0789795,0.0159912,0.1600342,0.0229797,0.2390137,0.0270081c0.0670166,0.0059814,0.1340332,0.0069885,0.197998,0.0069885
		c0.0300293,0,0.0610352,0,0.0980225-0.0010071c0.0510254-0.0039978,0.1090088-0.0059814,0.1729736-0.0130005
		c0.0400391-0.0039978,0.0820313-0.0090027,0.1259766-0.0159912l0.0581055-0.0100098
		c0.157959-0.0289917,0.3399658-0.0740051,0.5358887-0.1430054c0.1060791-0.0379944,0.2141113-0.0820007,0.3270264-0.1359863
		c0.0620117-0.0280151,0.1259766-0.0650024,0.1920166-0.0979919c0.05896-0.0320129,0.118042-0.0670166,0.1789551-0.1040039
		l0.0650635-0.0370178l0.0319824-0.0220032V5.34198z M4.5155029,6.6429749h7.05896V0h-7.05896V6.6429749z M6.3674316,0.9319763
		h1.5540771c0.8349609,0,1.2059326,0.4370117,1.2059326,0.4370117s0.3370361,0.2909851,0.3370361,0.7980042
		c0,0.5059814-0.2280273,0.7139893-0.2940674,0.7789917C9.0324707,3.0820007,8.852417,3.1689758,8.852417,3.1689758
		s0.3970947,0.0830078,0.7091064,0.3940125c0.3669434,0.3649902,0.3378906,0.8389893,0.3378906,0.8389893
		s0.0290527,0.4590149-0.3669434,0.8529968C9.0484619,5.7399902,8.168457,5.71698,8.168457,5.71698H6.3674316V0.9319763z
		 M7.7004395,2.914978l0.0900879-0.0029907c0.0859375-0.0079956,0.2019043-0.0190125,0.3199463-0.0509949l0.0679932-0.0220032
		C8.2684326,2.8069763,8.3564453,2.7579956,8.425415,2.690979c0.0540771-0.0539856,0.0891113-0.1149902,0.1151123-0.1699829
		c0.0279541-0.0720215,0.0389404-0.1390076,0.0408936-0.1860046C8.5854492,2.289978,8.5854492,2.2639771,8.5854492,2.2639771
		L8.5844727,2.2129822C8.5814209,2.1569824,8.5704346,2.0709839,8.5284424,1.9849854
		C8.5084229,1.9459839,8.4794922,1.9069824,8.4404297,1.8669739C8.3944092,1.8239746,8.3394775,1.7879944,8.2794189,1.7599792
		C8.1634521,1.7109985,8.0324707,1.6900024,7.9204102,1.6809998C7.8704834,1.6779785,7.8275146,1.6779785,7.7905273,1.6779785
		h-0.56604v1.2380066h0.4100342C7.6345215,2.9159851,7.6634521,2.9159851,7.7004395,2.914978 M8.5665283,4.8969727
		c0.1049805-0.0359802,0.2109375-0.0909729,0.2879639-0.1689758l0.0770264-0.0960083
		C8.99646,4.5269775,9.0145264,4.42099,9.0184326,4.3609924l0.0009766-0.0410156V4.2869873
		c0-0.0239868-0.0039063-0.071991-0.0179443-0.125C8.9864502,4.098999,8.9575195,4.0279846,8.9044189,3.9629822L8.8704834,3.9239807
		L8.7954102,3.8589783C8.7495117,3.8259888,8.694458,3.7939758,8.6384277,3.7689819
		c-0.0769043-0.0319824-0.1619873-0.0539856-0.2559814-0.072998c-0.0479736-0.0109863-0.098999-0.0169983-0.1500244-0.0220032
		C8.1984863,3.67099,8.1674805,3.6679993,8.1334229,3.6659851L8.0454102,3.6619873H7.2244873v1.3089905h0.8499756L8.1184082,4.96698
		c0.0290527,0,0.0681152-0.0019836,0.1190186-0.0050049C8.3275146,4.9530029,8.4494629,4.9359741,8.5665283,4.8969727"/>
	<path clip-path="url(#SVGID_2_)" fill="#2A2321" d="M4.2979736,11.1402588l2.8341064-3.0119934
		c0.0499268-0.0539856,0.0310059-0.0979919-0.0419922-0.0979919H4.7979736c-0.0739746,0-0.1729736,0.04599-0.2209473,0.1019897
		l-2.4799805,2.8819885L2.0610352,11.01828V8.1642761c0-0.0740051-0.0600586-0.1340027-0.1340332-0.1340027H0.1340332
		C0.0610352,8.0302734,0,8.090271,0,8.1642761v7.6419983c0,0.072998,0.0610352,0.1340027,0.1340332,0.1340027H1.927002
		c0.0739746,0,0.1340332-0.0610046,0.1340332-0.1340027V13.636261c0-0.1069946,0.0019531-0.1409912,0.092041-0.2309875
		l0.7509766-0.7850037l2.0529785,3.2070007c0.0400391,0.0619812,0.1330566,0.1130066,0.2070313,0.1130066h2.2910156
		c0.072998,0,0.0999756-0.0500183,0.0579834-0.1110229L4.2979736,11.1402588z M11.6099854,10.0232544
		c-1.2199707,0-1.8109131,0.95401-1.8170166,0.95401c-0.0059814,0-0.0109863-0.0029907-0.0109863-0.0029907v-0.6499939
		c0-0.0730286-0.0599365-0.1340027-0.1339111-0.1340027H8.0880127c-0.072998,0-0.1329346,0.0609741-0.1329346,0.1340027v5.4819946
		c0,0.072998,0.0599365,0.1340027,0.1329346,0.1340027h1.6159668c0.072998,0,0.1340332-0.0610046,0.1340332-0.1340027v-3.0010071
		c0-0.6319885,0.3100586-1.2309875,1.019043-1.2309875c0.7409668,0,0.940918,0.3709717,0.940918,1.2789917v2.9530029
		c0,0.072998,0.0610352,0.1340027,0.1340332,0.1340027h1.6159668c0.072998,0,0.1330566-0.0610046,0.1330566-0.1340027v-3.5550232
		C13.6810303,11.419281,13.5269775,10.0232544,11.6099854,10.0232544 M17.144043,10.0232544
		c-1.7840576,0-3.0240479,1.3190002-3.0240479,3.0480042c0,1.7279968,1.2399902,3.0339966,3.0240479,3.0339966
		c1.782959,0,3.0350342-1.3059998,3.0350342-3.0339966C20.1790771,11.3422546,18.927002,10.0232544,17.144043,10.0232544
		 M17.144043,14.6652527c-0.8759766,0-1.1409912-0.8629761-1.1409912-1.5939941
		c0-0.7319946,0.2650146-1.6069946,1.1409912-1.6069946c0.875,0,1.151001,0.875,1.151001,1.6069946
		C18.2950439,13.8022766,18.019043,14.6652527,17.144043,14.6652527 M28.9840088,10.1902771H27.335083
		c-0.0740967,0-0.1490479,0.0589905-0.1671143,0.1299744l-0.8759766,3.4510193
		c-0.0179443,0.071991-0.0379639,0.1300049-0.0439453,0.1300049s-0.0240479-0.0580139-0.0410156-0.1300049l-0.7819824-3.4500122
		c-0.0169678-0.071991-0.0910645-0.1309814-0.1640625-0.1309814h-1.5269775c-0.0739746,0-0.1469727,0.0589905-0.1629639,0.1309814
		l-0.7609863,3.460022c-0.0159912,0.071991-0.0340576,0.1309814-0.0400391,0.1309814s-0.0269775-0.0579834-0.0450439-0.1300049
		l-0.8969727-3.4620056c-0.0189209-0.0709839-0.0939941-0.1299744-0.1679688-0.1299744h-1.6369629
		c-0.072998,0-0.1160889,0.0579834-0.0939941,0.1279907l1.7139893,5.493988
		c0.0229492,0.0700073,0.1009521,0.1280212,0.1749268,0.1280212h1.6380615c0.072998,0,0.1479492-0.059021,0.164917-0.131012
		l0.8341064-3.5610046c0.0169678-0.071991,0.0360107-0.1300049,0.0419922-0.1300049
		c0.006958,0,0.026001,0.0580139,0.0429688,0.1300049l0.8459473,3.5610046c0.0170898,0.071991,0.092041,0.131012,0.1660156,0.131012
		h1.637085c0.0739746,0,0.1519775-0.0580139,0.1739502-0.1280212l1.7139893-5.493988
		C29.098999,10.2482605,29.0570068,10.1902771,28.9840088,10.1902771 M31.2320557,8.0302734h-1.6149902
		c-0.0750732,0-0.1350098,0.0599976-0.1350098,0.1340027v7.6419983c0,0.072998,0.0599365,0.1340027,0.1350098,0.1340027h1.6149902
		c0.0739746,0,0.1340332-0.0610046,0.1340332-0.1340027V8.1642761C31.3660889,8.090271,31.3060303,8.0302734,31.2320557,8.0302734
		 M44.1540527,8.0302734h-1.6140137c-0.0749512,0-0.1350098,0.0599976-0.1350098,0.1340027v2.6429749
		c0,0-0.0100098,0.0030212-0.0229492,0.0030212c-0.3880615-0.5200195-0.9300537-0.7870178-1.6390381-0.7870178
		c-1.6290283,0-2.427002,1.4190063-2.427002,2.9140015c0,1.6180115,0.7650146,3.1679993,2.5710449,3.1679993
		c1.072998,0,1.5899658-0.8289795,1.5959473-0.8289795s0.0100098,0.0599976,0.0100098,0.1329956v0.3970032
		c0,0.072998,0.0610352,0.1340027,0.1340332,0.1340027h1.5269775c0.0739746,0,0.1340332-0.0610046,0.1340332-0.1340027V8.1642761
		C44.2880859,8.090271,44.2280273,8.0302734,44.1540527,8.0302734 M41.3530273,14.6652527
		c-0.8649902,0-1.1529541-0.8739929-1.1529541-1.6609802c0-0.7310181,0.2879639-1.5400085,1.1529541-1.5400085
		c0.8189697,0,1.1190186,0.7650146,1.1190186,1.5950012C42.4720459,13.7912598,42.2709961,14.6652527,41.3530273,14.6652527
		 M34.9119873,10.0232544c-1.6949463,0-3.1019287,1.2640076-3.1019287,3.0250244
		c0,1.9279785,1.2739258,3.0569763,3.1459961,3.0569763c1.2349854,0,2.4169922-0.5309753,2.8129883-1.75
		c0.0059814-0.0169983,0.0460205-0.1549988-0.0650635-0.1549988h-1.651001
		c-0.1779785,0.4210205-0.6209717,0.632019-1.0749512,0.632019c-0.7979736,0-1.2519531-0.5209961-1.2840576-1.3080139h4.0650635
		c0.1760254,0,0.1600342-0.1229858,0.1600342-0.1839905C37.9360352,11.4782715,36.9069824,10.0232544,34.9119873,10.0232544
		 M33.6939697,12.4722595c0.1090088-0.696991,0.5531006-1.1739807,1.2180176-1.1739807
		c0.6309814,0,1.0860596,0.5309753,1.1190186,1.1739807H33.6939697z M56.8730469,13.340271
		c0.0179443-1.8619995-1.0109863-3.3170166-3.006958-3.3170166c-1.6940918,0-3.1010742,1.2640076-3.1010742,3.0250244
		c0,1.9279785,1.2740479,3.0569763,3.1469727,3.0569763c1.2330322,0,2.4160156-0.5309753,2.8120117-1.75
		c0.0050049-0.0169983,0.0450439-0.1549988-0.065918-0.1549988h-1.6500244
		c-0.1779785,0.4210205-0.6209717,0.632019-1.0750732,0.632019c-0.7969971,0-1.2509766-0.5209961-1.2849121-1.3080139h4.0649414
		C56.8900146,13.5242615,56.8730469,13.4012756,56.8730469,13.340271 M52.6480713,12.4722595
		c0.1099854-0.696991,0.5529785-1.1739807,1.2180176-1.1739807c0.631958,0,1.0859375,0.5309753,1.1199951,1.1739807H52.6480713z
		 M49.2410889,16.8632507c-0.5421143-0.3629761-0.7041016-0.5369873-0.7330322-1.1169739
		c-0.0020752-0.0420227-0.0109863-0.1340027-0.1340332-0.1340027h-1.5019531c-0.0740967,0-0.1350098,0.0610046-0.1350098,0.1340027
		v0.4029846c0,0.6719971,0.2269287,1.1190186,0.9049072,1.632019c0.4460449,0.3389893,0.8950195,0.5629883,0.8950195,1.1359863
		c0,0.4360046-0.3239746,0.7000122-0.7269287,0.7000122c-0.6160889,0-0.927002-0.3780212-0.9620361-0.9869995l-0.0119629-0.2180176
		h-1.7750244c-0.1419678,0-0.1660156,0.1090088-0.1640625,0.1629944c0.0880127,1.7120056,1.2330322,2.6930237,2.9250488,2.6930237
		c1.3969727,0,2.7950439-0.757019,2.7950439-2.3390198C50.6170654,17.8152771,50.0910645,17.4142761,49.2410889,16.8632507"/>
	<path clip-path="url(#SVGID_2_)" fill="#EA5507" d="M49.12146,12.7026672c0-0.8819885-0.7141113-1.5959778-1.5960693-1.5959778
		s-1.5959473,0.7139893-1.5959473,1.5959778c0,0.881012,0.7139893,1.5960083,1.5959473,1.5960083
		S49.12146,13.5836792,49.12146,12.7026672"/>
</g>
</svg>
