<svg xmlns="http://www.w3.org/2000/svg" xmlns:xlink="http://www.w3.org/1999/xlink" width="176" height="39" viewBox="0 0 176 39"><defs><clipPath id="a"><path d="M0,0H124.182V26H0Z" fill="none"/></clipPath><clipPath id="b"><path d="M0,0H31.639V38.841H0Z" fill="none"/></clipPath></defs><g transform="translate(0 0.123)"><g transform="translate(44.063 3.371)"><path d="M0,0H124.182V26H0Z" transform="translate(0 0)" fill="none"/><g transform="translate(0 0)" clip-path="url(#a)"><path d="M91.5,26a9.057,9.057,0,0,1-3.37-.616,7.476,7.476,0,0,1-2.61-1.734,7.728,7.728,0,0,1-1.687-2.682,9.768,9.768,0,0,1-.6-3.46,9.715,9.715,0,0,1,.6-3.447,7.765,7.765,0,0,1,1.687-2.684,7.5,7.5,0,0,1,2.61-1.742,9.007,9.007,0,0,1,3.37-.62,9.638,9.638,0,0,1,3.649.662,7.26,7.26,0,0,1,2.591,1.769A8.048,8.048,0,0,1,99.8,16.984a8.433,8.433,0,0,1-.195,1.815H88.165a3.315,3.315,0,0,0,1.167,2.168,3.8,3.8,0,0,0,2.431.782,3.6,3.6,0,0,0,3.371-1.912l4.052,1.977a7.364,7.364,0,0,1-3,3.088A9.583,9.583,0,0,1,91.5,26Zm0-13.1a3.769,3.769,0,0,0-1.255.209,3.332,3.332,0,0,0-1.006.561A2.849,2.849,0,0,0,88.2,15.461h6.58a2.843,2.843,0,0,0-1.041-1.8,3.284,3.284,0,0,0-1-.554A3.737,3.737,0,0,0,91.5,12.9ZM58.928,26a7.284,7.284,0,0,1-5.352-2.326,8.071,8.071,0,0,1-1.654-2.679,9.811,9.811,0,0,1-.611-3.488,9.559,9.559,0,0,1,.674-3.624,7.879,7.879,0,0,1,1.774-2.664,7.679,7.679,0,0,1,5.364-2.2,7.42,7.42,0,0,1,2.792.535,5.29,5.29,0,0,1,1.844,1.216L64.244,9.4H68.75V25.606H64.439l-.681-1.459a5.027,5.027,0,0,1-1.722,1.228A7.5,7.5,0,0,1,58.928,26ZM60.16,13.289a3.771,3.771,0,0,0-2.771,1.147,3.888,3.888,0,0,0-.821,1.328,5.224,5.224,0,0,0,0,3.477,3.889,3.889,0,0,0,.821,1.328,3.771,3.771,0,0,0,2.771,1.147A3.723,3.723,0,0,0,62.9,20.57a3.9,3.9,0,0,0,.817-1.328,5.234,5.234,0,0,0,0-3.477,3.9,3.9,0,0,0-.817-1.328A3.723,3.723,0,0,0,60.16,13.289ZM24.927,25.607H20.032V16.174a3.365,3.365,0,0,0-.551-2.1,1.948,1.948,0,0,0-1.621-.689,2.486,2.486,0,0,0-2.042,1.029,3.968,3.968,0,0,0-.638,1.35,7.427,7.427,0,0,0-.237,1.964v7.877H10.016V16.174a3.365,3.365,0,0,0-.551-2.1,1.947,1.947,0,0,0-1.621-.689,2.406,2.406,0,0,0-1.112.265,2.673,2.673,0,0,0-.93.812,4.181,4.181,0,0,0-.638,1.384,7.6,7.6,0,0,0-.237,1.979v7.78H0V9.4H4.149l.583,2.075A5.08,5.08,0,0,1,6.56,9.768,6.066,6.066,0,0,1,9.53,9.01a5.487,5.487,0,0,1,2.678.636,4.712,4.712,0,0,1,1.828,1.827,4.79,4.79,0,0,1,1.852-1.706,6.614,6.614,0,0,1,3.14-.758,5.77,5.77,0,0,1,4.214,1.58,5.409,5.409,0,0,1,1.238,2,8.385,8.385,0,0,1,.448,2.835V25.606Zm21,0H40.841l-2.269-6.58L36.3,25.606H31.214L25.9,9.4H30.89l2.95,11.053L36.5,13.127,35.234,9.4h4.895L43.37,20.42,46.222,9.4h5.024L45.93,25.606Zm31.019,0H72.023V9.4H76.2l.421,2.107a4.436,4.436,0,0,1,1.831-1.88,5.233,5.233,0,0,1,2.512-.616,6.614,6.614,0,0,1,2.269.389l-.94,5.024a5.242,5.242,0,0,0-2.269-.519,2.9,2.9,0,0,0-2.2.887,3.085,3.085,0,0,0-.648,1.123A4.988,4.988,0,0,0,76.95,17.5v8.1Zm31.514-6.466a5.44,5.44,0,0,1-3.876-1.371,4.448,4.448,0,0,1-1.065-1.634,6.159,6.159,0,0,1-.373-2.2V7.964H101.1V4.579h2.048V.825L107.443,0V4.579H113.6l3.129,9.7,3.072-9.7h4.38L119.006,18.8h-4.579L110.482,7.964h-3.039v5.749a1.735,1.735,0,0,0,1.925,1.725,3.181,3.181,0,0,0,1.357-.311v3.7A7.508,7.508,0,0,1,108.463,19.141Z" transform="translate(0 0)"/></g></g><g transform="translate(0 0)"><path d="M0,0H31.639V38.841H0Z" fill="none"/><g clip-path="url(#b)"><path d="M9.979,35A11.743,11.743,0,0,1,4.121,24.858V8.94a4.819,4.819,0,0,1,9.638,0V24.858a2.061,2.061,0,0,0,4.121,0V16.894a4.819,4.819,0,0,1,9.638,0,2.061,2.061,0,1,0,4.121,0A8.936,8.936,0,0,0,17.88,9.366V8.94A8.94,8.94,0,0,0,0,8.94V24.858A15.814,15.814,0,0,0,7.917,38.565,2.061,2.061,0,1,0,9.979,35" transform="translate(0)" fill="#485fe0"/></g></g><path d="M29.578,7.954a2.061,2.061,0,0,0-2.061,2.061,4.819,4.819,0,0,1-9.638,0,2.061,2.061,0,1,0-4.121,0v7.964a4.819,4.819,0,1,1-9.638,0V2.061A2.061,2.061,0,1,0,0,2.061V17.978a8.94,8.94,0,1,0,17.88,0v-.437a8.937,8.937,0,0,0,13.759-7.527,2.061,2.061,0,0,0-2.061-2.061" transform="translate(6.879 6.879)" fill="#485fe0"/></g></svg>
