<?xml version="1.0" encoding="UTF-8"?>
<svg xmlns="http://www.w3.org/2000/svg" xmlns:xlink="http://www.w3.org/1999/xlink" width="306.87pt" height="62.39pt" viewBox="0 0 306.87 62.39" version="1.1">
<defs>
<clipPath id="clip1">
  <path d="M 241 0 L 306.871094 0 L 306.871094 62.390625 L 241 62.390625 Z M 241 0 "/>
</clipPath>
</defs>
<g id="surface1">
<path style=" stroke:none;fill-rule:nonzero;fill:rgb(13.699341%,12.199402%,12.5%);fill-opacity:1;" d="M 175.222656 1.828125 C 173.6875 1.316406 171.933594 1.074219 170.46875 1.074219 C 166.449219 1.074219 163.320313 3.058594 163.320313 6.785156 C 163.320313 13.304688 172.890625 12.011719 172.890625 16.699219 C 172.890625 19.160156 170.34375 20.125 168.523438 20.125 C 166.894531 20.125 164.980469 19.523438 163.898438 19.101563 L 163.574219 21.898438 C 165.042969 22.347656 166.578125 22.769531 168.140625 22.769531 C 172.609375 22.769531 176.277344 20.996094 176.277344 16.519531 C 176.277344 9.609375 166.703125 10.539063 166.703125 6.515625 C 166.703125 4.320313 168.808594 3.71875 170.59375 3.71875 C 172.253906 3.71875 173.148438 3.988281 174.773438 4.589844 "/>
<path style=" stroke:none;fill-rule:nonzero;fill:rgb(13.699341%,12.199402%,12.5%);fill-opacity:1;" d="M 233.925781 1.953125 C 232.332031 1.292969 230.640625 1.050781 228.914063 1.050781 C 222.121094 1.050781 217.144531 5.347656 217.144531 11.808594 C 217.144531 18.476563 221.835938 22.742188 228.882813 22.742188 C 230.195313 22.742188 232.269531 22.652344 233.957031 21.992188 L 233.765625 19.078125 C 232.648438 19.707031 230.515625 20.101563 228.914063 20.101563 C 224.289063 20.101563 220.527344 16.824219 220.527344 11.894531 C 220.527344 7.179688 223.9375 3.695313 229.078125 3.695313 C 230.703125 3.695313 232.269531 4.085938 233.671875 4.867188 "/>
<path style=" stroke:none;fill-rule:nonzero;fill:rgb(13.699341%,12.199402%,12.5%);fill-opacity:1;" d="M 202.992188 3.894531 L 206.339844 3.894531 C 208.191406 3.894531 210.457031 4.527344 210.457031 7.019531 C 210.457031 10.117188 207.839844 10.382813 204.746094 10.382813 L 202.992188 10.382813 Z M 202.992188 12.851563 L 205.066406 12.851563 C 207.808594 12.851563 210.839844 13.300781 210.839844 16.546875 C 210.839844 19.367188 208.257813 19.941406 205.382813 19.941406 L 202.992188 19.941406 Z M 199.800781 22.402344 L 205.734375 22.402344 C 210.261719 22.402344 214.21875 21.320313 214.21875 16.8125 C 214.21875 13.871094 212.085938 12.007813 209.050781 11.769531 L 209.050781 11.707031 C 211.863281 11.046875 213.644531 9.605469 213.644531 6.71875 C 213.644531 2.84375 210.457031 1.433594 205.832031 1.433594 L 199.800781 1.433594 "/>
<path style=" stroke:none;fill-rule:nonzero;fill:rgb(13.699341%,12.199402%,12.5%);fill-opacity:1;" d="M 192.257813 18.777344 L 182.894531 18.777344 L 181.210938 22.425781 L 177.921875 22.425781 L 187.445313 1.566406 L 197.089844 22.425781 L 193.839844 22.425781 Z M 187.589844 8.277344 L 184.160156 16.113281 L 191.0625 16.113281 "/>
<path style=" stroke:none;fill-rule:nonzero;fill:rgb(13.699341%,12.199402%,12.5%);fill-opacity:1;" d="M 0 57.285156 L 17.320313 57.285156 L 17.320313 52.679688 L 5.855469 52.679688 L 5.855469 44.480469 L 16.273438 44.480469 L 16.273438 39.878906 L 5.855469 39.878906 L 5.855469 32.683594 L 17.234375 32.683594 L 17.234375 28.078125 L 0 28.078125 "/>
<path style=" stroke:none;fill-rule:nonzero;fill:rgb(13.699341%,12.199402%,12.5%);fill-opacity:1;" d="M 24.082031 57.285156 L 32.070313 57.285156 C 41.023438 57.285156 48.933594 54.269531 48.933594 42.679688 C 48.933594 31.09375 41.023438 28.078125 32.070313 28.078125 L 24.082031 28.078125 Z M 29.9375 32.683594 L 33.203125 32.683594 C 38.097656 32.683594 42.824219 36.324219 42.824219 42.679688 C 42.824219 49.042969 38.097656 52.679688 33.203125 52.679688 L 29.9375 52.679688 "/>
<path style=" stroke:none;fill-rule:nonzero;fill:rgb(13.699341%,12.199402%,12.5%);fill-opacity:1;" d="M 54.898438 46.738281 C 54.898438 54.5625 59.332031 57.78125 66.820313 57.78125 C 74.308594 57.78125 78.746094 54.5625 78.746094 46.738281 L 78.746094 28.078125 L 72.886719 28.078125 L 72.886719 44.941406 C 72.886719 49.917969 71.296875 53.183594 66.820313 53.183594 C 62.34375 53.183594 60.753906 49.917969 60.753906 44.941406 L 60.753906 28.078125 L 54.898438 28.078125 "/>
<path style=" stroke:none;fill-rule:nonzero;fill:rgb(13.699341%,12.199402%,12.5%);fill-opacity:1;" d="M 107.136719 51.96875 C 105.753906 52.679688 103.035156 53.183594 100.734375 53.183594 C 94.5 53.183594 90.820313 48.707031 90.820313 42.765625 C 90.820313 36.78125 94.585938 32.179688 100.609375 32.179688 C 102.699219 32.179688 104.707031 32.472656 106.925781 33.726563 L 107.34375 28.792969 C 105.210938 27.953125 102.65625 27.578125 100.734375 27.578125 C 90.820313 27.578125 84.714844 33.1875 84.714844 43.183594 C 84.714844 53.054688 91.277344 57.78125 100.734375 57.78125 C 102.953125 57.78125 105.25 57.363281 107.386719 56.863281 "/>
<path style=" stroke:none;fill-rule:nonzero;fill:rgb(13.699341%,12.199402%,12.5%);fill-opacity:1;" d="M 128.332031 45.988281 L 119.796875 45.988281 L 124.019531 33.9375 L 124.101563 33.9375 Z M 109.503906 57.285156 L 115.570313 57.285156 L 118.121094 50.585938 L 129.960938 50.585938 L 132.46875 57.285156 L 138.957031 57.285156 L 127.492188 28.078125 L 120.882813 28.078125 "/>
<path style=" stroke:none;fill-rule:nonzero;fill:rgb(13.699341%,12.199402%,12.5%);fill-opacity:1;" d="M 145.507813 57.285156 L 151.367188 57.285156 L 151.367188 32.683594 L 159.730469 32.683594 L 159.730469 28.078125 L 137.144531 28.078125 L 137.144531 32.683594 L 145.507813 32.683594 "/>
<path style=" stroke:none;fill-rule:nonzero;fill:rgb(13.699341%,12.199402%,12.5%);fill-opacity:1;" d="M 163.777344 57.28125 L 169.632813 57.28125 L 169.632813 28.082031 L 163.777344 28.082031 Z M 163.777344 57.28125 "/>
<path style=" stroke:none;fill-rule:nonzero;fill:rgb(13.699341%,12.199402%,12.5%);fill-opacity:1;" d="M 175.308594 42.597656 C 175.308594 51.550781 180.246094 57.78125 189.617188 57.78125 C 198.859375 57.78125 203.921875 51.425781 203.921875 42.597656 C 203.921875 33.769531 198.777344 27.578125 189.617188 27.578125 C 180.328125 27.578125 175.308594 33.644531 175.308594 42.597656 M 181.414063 42.597656 C 181.414063 37.453125 183.800781 32.179688 189.617188 32.179688 C 195.429688 32.179688 197.816406 37.453125 197.816406 42.597656 C 197.816406 47.867188 195.59375 53.183594 189.617188 53.183594 C 183.632813 53.183594 181.414063 47.867188 181.414063 42.597656 "/>
<path style=" stroke:none;fill-rule:nonzero;fill:rgb(13.699341%,12.199402%,12.5%);fill-opacity:1;" d="M 209.808594 57.285156 L 215.410156 57.285156 L 215.410156 35.441406 L 215.496094 35.441406 L 226.664063 57.285156 L 233.820313 57.285156 L 233.820313 28.078125 L 228.214844 28.078125 L 228.214844 49.917969 L 228.128906 49.917969 L 217 28.078125 L 209.808594 28.078125 "/>
<path style=" stroke:none;fill-rule:nonzero;fill:rgb(99.198914%,72.499084%,7.499695%);fill-opacity:1;" d="M 280.367188 7.128906 C 279.964844 7.128906 278.21875 7.417969 277.265625 7.65625 C 276.453125 7.882813 275.675781 8.75 274.683594 8.851563 C 272.800781 9.054688 268.773438 15.054688 268.773438 17.261719 C 268.773438 18.941406 269.476563 19.699219 271.242188 20.933594 C 272.132813 21.5625 273.421875 22.933594 274.675781 23.179688 C 280.128906 24.292969 285.636719 18.074219 285.636719 14.261719 C 285.636719 10.960938 279.898438 9.722656 278.660156 9.457031 C 280.039063 8.140625 279.515625 7.457031 280.691406 7.457031 C 281.09375 7.457031 281.992188 7.777344 282.554688 7.707031 C 281.84375 7.457031 280.769531 7.128906 280.367188 7.128906 M 275.542969 2.75 L 275.886719 2.75 C 286.492188 2.75 295.664063 8.851563 300.089844 17.738281 C 297.375 18.367188 292.234375 24.355469 292.234375 24.355469 C 286.421875 24.351563 267.566406 29.125 263.496094 30.640625 C 259.328125 32.4375 250.433594 35.265625 250.046875 31.921875 C 249.902344 30.664063 250.003906 30.164063 250.003906 30.164063 L 250.003906 28.753906 C 250.007813 27.316406 250.601563 25.710938 250.777344 25.046875 C 253.175781 15.871094 263.113281 7.042969 268.398438 4.730469 C 270.605469 3.769531 273.09375 3.214844 275.542969 2.75 M 300.609375 18.847656 C 301.789063 21.511719 302.546875 24.402344 302.808594 27.433594 C 301.292969 26.476563 299.609375 25.773438 297.957031 25.203125 C 298.238281 25.117188 298.285156 24.566406 298.511719 24.546875 L 298.984375 23.160156 C 298.757813 22.726563 300.164063 20.316406 300.609375 18.847656 "/>
<path style=" stroke:none;fill-rule:nonzero;fill:rgb(92.89856%,10.998535%,14.099121%);fill-opacity:1;" d="M 289.105469 27.238281 C 288.019531 28.40625 272.089844 51.84375 272.101563 51.785156 C 274.699219 39.050781 272.019531 34.199219 271.554688 33.734375 C 271.128906 33.3125 270.863281 32.875 270.019531 32.15625 C 274.484375 29.964844 284.101563 27.984375 289.105469 27.238281 "/>
<path style=" stroke:none;fill-rule:nonzero;fill:rgb(0%,37.599182%,68.598938%);fill-opacity:1;" d="M 266.828125 32.90625 C 269.34375 32.90625 270.71875 38.726563 270.71875 39.167969 L 270.71875 44.152344 C 270.71875 48.027344 268.675781 52.265625 267.105469 55.789063 C 260.375 56.144531 251.597656 49.949219 251.246094 41.808594 C 251.230469 41.40625 250.941406 40.769531 250.941406 40.367188 C 250.941406 39.957031 251.136719 39.734375 251.304688 39.605469 C 254.359375 38.589844 265.695313 32.90625 266.828125 32.90625 "/>
<path style=" stroke:none;fill-rule:nonzero;fill:rgb(0%,65.098572%,31.399536%);fill-opacity:1;" d="M 296.417969 27.070313 C 296.824219 27.070313 297.308594 27.230469 297.714844 27.230469 C 298.199219 27.230469 303.105469 27.953125 302.722656 31.816406 C 302.3125 35.929688 294.875 53.429688 274.671875 55.746094 L 273.808594 55.746094 C 276.8125 50.699219 278.902344 46.765625 282.285156 41.578125 C 283.054688 40.398438 294.046875 27.070313 296.417969 27.070313 "/>
<g clip-path="url(#clip1)" clip-rule="nonzero">
<path style=" stroke:none;fill-rule:nonzero;fill:rgb(13.699341%,12.199402%,12.5%);fill-opacity:1;" d="M 280.367188 7.128906 C 280.769531 7.128906 281.84375 7.457031 282.554688 7.707031 C 281.992188 7.777344 281.09375 7.457031 280.691406 7.457031 C 279.515625 7.457031 280.039063 8.140625 278.660156 9.457031 C 279.898438 9.722656 285.636719 10.960938 285.636719 14.261719 C 285.636719 18.074219 280.128906 24.292969 274.675781 23.179688 C 273.421875 22.933594 272.132813 21.5625 271.242188 20.933594 C 269.476563 19.699219 268.773438 18.941406 268.773438 17.261719 C 268.773438 15.054688 272.800781 9.054688 274.683594 8.851563 C 275.675781 8.75 276.453125 7.882813 277.265625 7.65625 C 278.21875 7.417969 279.964844 7.128906 280.367188 7.128906 M 278.015625 11.832031 C 276.515625 11.832031 273.800781 18.035156 273.800781 19.53125 C 273.800781 19.9375 273.96875 20.21875 274.175781 20.582031 C 275.671875 20.054688 280.121094 16.144531 280.121094 13.777344 C 280.121094 12.601563 279.433594 11.832031 278.015625 11.832031 M 266.828125 32.902344 C 265.695313 32.902344 254.359375 38.589844 251.304688 39.605469 C 251.136719 39.730469 250.941406 39.957031 250.941406 40.367188 C 250.941406 40.769531 251.230469 41.402344 251.246094 41.808594 C 251.597656 49.949219 260.375 56.144531 267.105469 55.789063 C 268.675781 52.265625 270.71875 48.023438 270.71875 44.152344 L 270.71875 39.167969 C 270.71875 38.726563 269.34375 32.902344 266.828125 32.902344 M 289.105469 27.234375 C 284.101563 27.984375 274.484375 29.964844 270.019531 32.15625 C 270.859375 32.875 271.128906 33.3125 271.554688 33.734375 C 272.019531 34.199219 274.695313 39.050781 272.101563 51.785156 C 272.089844 51.84375 288.019531 28.40625 289.105469 27.234375 M 296.417969 27.074219 C 294.046875 27.074219 283.054688 40.398438 282.285156 41.578125 C 278.902344 46.765625 276.8125 50.699219 273.808594 55.746094 L 274.671875 55.746094 C 294.878906 53.429688 302.3125 35.929688 302.722656 31.816406 C 303.105469 27.953125 298.199219 27.230469 297.714844 27.230469 C 297.308594 27.230469 296.824219 27.074219 296.417969 27.074219 M 275.34375 -0.00390625 C 282.152344 0.15625 283.039063 0.15625 283.449219 0.15625 C 286.914063 0.15625 299.855469 4.683594 300.128906 8.882813 L 299.710938 11.082031 C 299.496094 11.148438 298.769531 11.128906 298.34375 11.128906 C 297.371094 11.128906 294.914063 6.382813 290.742188 4.007813 C 288.515625 2.746094 285.820313 2.265625 283.632813 1.777344 C 283.503906 1.917969 283.277344 1.941406 280.699219 1.777344 C 276.898438 2.609375 272.214844 3.070313 268.398438 4.730469 C 263.113281 7.042969 253.175781 15.871094 250.777344 25.046875 C 250.601563 25.710938 250.007813 27.316406 250.003906 28.753906 L 250.003906 30.164063 C 250.003906 30.164063 249.902344 30.664063 250.046875 31.921875 C 250.433594 35.265625 259.328125 32.4375 263.496094 30.640625 C 267.566406 29.125 286.421875 24.351563 292.234375 24.355469 C 292.234375 24.355469 297.582031 18.125 300.253906 17.707031 C 301.953125 17.445313 298.644531 22.511719 298.984375 23.160156 L 298.511719 24.546875 C 298.285156 24.566406 298.238281 25.117188 297.957031 25.203125 C 300.683594 26.144531 303.492188 27.441406 305.492188 29.664063 C 306.464844 28.042969 306.550781 30.210938 306.550781 31.609375 C 306.550781 32.015625 306.875 32.667969 306.875 33.070313 C 306.875 33.71875 305.105469 36.035156 304.996094 36.148438 C 304.929688 35.742188 304.773438 35.285156 304.675781 34.851563 C 301.144531 39.867188 300.421875 45.84375 291.503906 51.757813 C 285.421875 55.789063 278.394531 57.226563 272.453125 58.789063 C 271.601563 59.011719 271.804688 59.449219 271.402344 60.261719 C 271.238281 60.585938 270.628906 62.085938 270.164063 62.25 C 269.828125 62.253906 265.464844 63.175781 265.183594 60.230469 C 265.074219 59.066406 266.136719 58.058594 266.304688 57.46875 C 265.214844 57.019531 262.164063 56.734375 260.886719 56.351563 C 260.078125 56.105469 259.164063 55.398438 258.453125 55.152344 C 252.839844 53.148438 249.105469 47.148438 246.515625 41.457031 C 246.414063 41.300781 246.128906 41.171875 245.984375 41.113281 C 244.828125 41.214844 241.371094 38.925781 241.371094 38.496094 C 241.371094 37.851563 244.78125 35.316406 244.78125 35.015625 C 244.78125 34.605469 244.292969 31.207031 244.292969 30.796875 C 244.292969 30.394531 244.78125 26.988281 244.78125 26.582031 C 244.78125 26.117188 246.832031 21.261719 247.480469 19.664063 C 250.925781 11.3125 265.367188 0.320313 274.445313 0.320313 C 274.855469 0.320313 275.019531 -0.00390625 275.34375 -0.00390625 "/>
</g>
</g>
</svg>
